# xmcd CD database file
#
# Track frame offsets:
#	187
#	12910
#	28435
#	41347
#	59312
#	70592
#	84642
#	97017
#	115750
#	132160
#
# Disc length: 2065 seconds
#
# Revision: 4
# Processed by: cddbd v1.5.1PL2 Copyright (c) Steve Scherf et al.
# Submitted via: CDex 1.51
#
DISCID=80080f0a
DTITLE=Eddie London - Do It Right
DYEAR=1991
DGENRE=Country
TTITLE0=Wakin' With The Blues
TTITLE1=If We Can't DoIt Right
TTITLE2=I Wouldn't Change A Thing About You But Your Name
TTITLE3=Uninvited Memory
TTITLE4=Leave My Country Alone
TTITLE5=Up On A Stool Feelin' Down
TTITLE6=Only A Fool Would Know
TTITLE7=Rowdy Road
TTITLE8=My Love Belongs To You
TTITLE9=Business As Usual
EXTD=corrected - more info YEAR: 1991
EXTT0=
EXTT1=
EXTT2=
EXTT3=
EXTT4=
EXTT5=
EXTT6=
EXTT7=
EXTT8=
EXTT9=
PLAYORDER=
